<svg width="794" height="48" viewBox="0 0 794 48" fill="none" xmlns="http://www.w3.org/2000/svg">
<path d="M22.3438 7.5625L8.75 47H0.53125L17.6562 1.5H22.9062L22.3438 7.5625ZM33.7188 47L20.0938 7.5625L19.5 1.5H24.7812L41.9688 47H33.7188ZM33.0625 30.125V36.3438H8.3125V30.125H33.0625ZM66.045 26.4375H54.4512L54.3887 20.7188H64.5137C66.2221 20.7188 67.67 20.4688 68.8575 19.9688C70.0658 19.4479 70.9825 18.7083 71.6075 17.75C72.2325 16.7708 72.545 15.5938 72.545 14.2188C72.545 12.6979 72.2533 11.4583 71.67 10.5C71.0867 9.54167 70.1908 8.84375 68.9825 8.40625C67.795 7.96875 66.2742 7.75 64.42 7.75H56.8262V47H48.9825V1.5H64.42C66.92 1.5 69.1492 1.73958 71.1075 2.21875C73.0867 2.69792 74.7637 3.44792 76.1387 4.46875C77.5346 5.46875 78.5867 6.73958 79.295 8.28125C80.0242 9.82292 80.3887 11.6562 80.3887 13.7812C80.3887 15.6562 79.9408 17.375 79.045 18.9375C78.1492 20.4792 76.8262 21.7396 75.0762 22.7188C73.3262 23.6979 71.1492 24.2812 68.545 24.4688L66.045 26.4375ZM65.7012 47H51.9825L55.5137 40.7812H65.7012C67.4721 40.7812 68.9512 40.4896 70.1387 39.9062C71.3262 39.3021 72.2117 38.4792 72.795 37.4375C73.3992 36.375 73.7012 35.1354 73.7012 33.7188C73.7012 32.2396 73.4408 30.9583 72.92 29.875C72.3992 28.7708 71.5762 27.9271 70.4512 27.3438C69.3262 26.7396 67.8575 26.4375 66.045 26.4375H57.2325L57.295 20.7188H68.7637L70.545 22.875C73.045 22.9583 75.0971 23.5104 76.7012 24.5312C78.3262 25.5521 79.5346 26.875 80.3262 28.5C81.1179 30.125 81.5137 31.875 81.5137 33.75C81.5137 36.6458 80.8783 39.0729 79.6075 41.0312C78.3575 42.9896 76.5554 44.4792 74.2012 45.5C71.8471 46.5 69.0137 47 65.7012 47ZM104.559 47H94.84L94.9025 40.7812H104.559C107.371 40.7812 109.725 40.1667 111.621 38.9375C113.538 37.7083 114.975 35.9479 115.934 33.6562C116.913 31.3646 117.402 28.6354 117.402 25.4688V23C117.402 20.5417 117.121 18.3646 116.559 16.4688C116.017 14.5729 115.205 12.9792 114.121 11.6875C113.059 10.3958 111.746 9.41667 110.184 8.75C108.642 8.08333 106.861 7.75 104.84 7.75H94.6525V1.5H104.84C107.861 1.5 110.621 2.01042 113.121 3.03125C115.621 4.03125 117.777 5.47917 119.59 7.375C121.423 9.27083 122.83 11.5417 123.809 14.1875C124.788 16.8333 125.277 19.7917 125.277 23.0625V25.4688C125.277 28.7396 124.788 31.6979 123.809 34.3438C122.83 36.9896 121.423 39.2604 119.59 41.1562C117.757 43.0312 115.569 44.4792 113.027 45.5C110.507 46.5 107.684 47 104.559 47ZM99.1837 1.5V47H91.34V1.5H99.1837ZM160.604 1.5H168.416V31.9062C168.416 35.3646 167.666 38.2604 166.166 40.5938C164.666 42.9271 162.625 44.6875 160.041 45.875C157.479 47.0417 154.614 47.625 151.447 47.625C148.177 47.625 145.26 47.0417 142.697 45.875C140.135 44.6875 138.114 42.9271 136.635 40.5938C135.177 38.2604 134.447 35.3646 134.447 31.9062V1.5H142.26V31.9062C142.26 34.0938 142.635 35.8958 143.385 37.3125C144.135 38.7083 145.197 39.7396 146.572 40.4062C147.947 41.0729 149.572 41.4062 151.447 41.4062C153.322 41.4062 154.937 41.0729 156.291 40.4062C157.666 39.7396 158.729 38.7083 159.479 37.3125C160.229 35.8958 160.604 34.0938 160.604 31.9062V1.5ZM207.367 40.7812V47H184.524V40.7812H207.367ZM186.711 1.5V47H178.867V1.5H186.711ZM236.395 1.5H243.395L256.551 36.5938L269.676 1.5H276.676L259.301 47H253.739L236.395 1.5ZM233.208 1.5H239.864L241.02 31.875V47H233.208V1.5ZM273.208 1.5H279.895V47H272.051V31.875L273.208 1.5ZM316.659 1.5H324.471V31.9062C324.471 35.3646 323.721 38.2604 322.221 40.5938C320.721 42.9271 318.68 44.6875 316.096 45.875C313.534 47.0417 310.669 47.625 307.503 47.625C304.232 47.625 301.315 47.0417 298.753 45.875C296.19 44.6875 294.169 42.9271 292.69 40.5938C291.232 38.2604 290.503 35.3646 290.503 31.9062V1.5H298.315V31.9062C298.315 34.0938 298.69 35.8958 299.44 37.3125C300.19 38.7083 301.253 39.7396 302.628 40.4062C304.003 41.0729 305.628 41.4062 307.503 41.4062C309.378 41.4062 310.992 41.0729 312.346 40.4062C313.721 39.7396 314.784 38.7083 315.534 37.3125C316.284 35.8958 316.659 34.0938 316.659 31.9062V1.5ZM361.797 32.1875H369.61C369.36 35.1667 368.527 37.8229 367.11 40.1562C365.693 42.4688 363.704 44.2917 361.141 45.625C358.579 46.9583 355.464 47.625 351.797 47.625C348.985 47.625 346.454 47.125 344.204 46.125C341.954 45.1042 340.027 43.6667 338.422 41.8125C336.818 39.9375 335.589 37.6771 334.735 35.0312C333.902 32.3854 333.485 29.4271 333.485 26.1562V22.375C333.485 19.1042 333.912 16.1458 334.766 13.5C335.641 10.8542 336.891 8.59375 338.516 6.71875C340.141 4.82292 342.089 3.375 344.36 2.375C346.652 1.375 349.225 0.875 352.079 0.875C355.704 0.875 358.766 1.54167 361.266 2.875C363.766 4.20833 365.704 6.05208 367.079 8.40625C368.475 10.7604 369.329 13.4583 369.641 16.5H361.829C361.62 14.5417 361.162 12.8646 360.454 11.4688C359.766 10.0729 358.745 9.01042 357.391 8.28125C356.037 7.53125 354.266 7.15625 352.079 7.15625C350.287 7.15625 348.725 7.48958 347.391 8.15625C346.058 8.82292 344.943 9.80208 344.047 11.0938C343.152 12.3854 342.475 13.9792 342.016 15.875C341.579 17.75 341.36 19.8958 341.36 22.3125V26.1562C341.36 28.4479 341.558 30.5312 341.954 32.4062C342.37 34.2604 342.995 35.8542 343.829 37.1875C344.683 38.5208 345.766 39.5521 347.079 40.2812C348.391 41.0104 349.964 41.375 351.797 41.375C354.027 41.375 355.829 41.0208 357.204 40.3125C358.6 39.6042 359.652 38.5729 360.36 37.2188C361.089 35.8438 361.568 34.1667 361.797 32.1875ZM408.717 20.5V26.7188H384.561V20.5H408.717ZM386.499 1.5V47H378.655V1.5H386.499ZM414.749 1.5V47H406.936V1.5H414.749ZM443.794 1.5V47H436.013V1.5H443.794ZM458.075 1.5V7.75H421.856V1.5H458.075ZM480.714 7.5625L467.12 47H458.901L476.026 1.5H481.276L480.714 7.5625ZM492.089 47L478.464 7.5625L477.87 1.5H483.151L500.339 47H492.089ZM491.432 30.125V36.3438H466.682V30.125H491.432ZM507.353 1.5H523.446C526.905 1.5 529.853 2.02083 532.29 3.0625C534.728 4.10417 536.592 5.64583 537.884 7.6875C539.196 9.70833 539.853 12.2083 539.853 15.1875C539.853 17.4583 539.436 19.4583 538.603 21.1875C537.769 22.9167 536.592 24.375 535.071 25.5625C533.55 26.7292 531.738 27.6354 529.634 28.2812L527.259 29.4375H512.79L512.728 23.2188H523.571C525.446 23.2188 527.009 22.8854 528.259 22.2188C529.509 21.5521 530.446 20.6458 531.071 19.5C531.717 18.3333 532.04 17.0208 532.04 15.5625C532.04 13.9792 531.728 12.6042 531.103 11.4375C530.498 10.25 529.561 9.34375 528.29 8.71875C527.019 8.07292 525.405 7.75 523.446 7.75H515.196V47H507.353V1.5ZM533.321 47L522.634 26.5625L530.853 26.5312L541.696 46.5938V47H533.321ZM585.161 7.5625L571.568 47H563.349L580.474 1.5H585.724L585.161 7.5625ZM596.536 47L582.911 7.5625L582.318 1.5H587.599L604.786 47H596.536ZM595.88 30.125V36.3438H571.13V30.125H595.88ZM635.737 35.2812C635.737 34.3438 635.592 33.5104 635.3 32.7812C635.029 32.0521 634.54 31.3854 633.831 30.7812C633.123 30.1771 632.123 29.5938 630.831 29.0312C629.56 28.4479 627.935 27.8542 625.956 27.25C623.79 26.5833 621.79 25.8438 619.956 25.0312C618.144 24.1979 616.56 23.2396 615.206 22.1562C613.852 21.0521 612.8 19.7917 612.05 18.375C611.3 16.9375 610.925 15.2812 610.925 13.4062C610.925 11.5521 611.31 9.86458 612.081 8.34375C612.873 6.82292 613.987 5.51042 615.425 4.40625C616.883 3.28125 618.602 2.41667 620.581 1.8125C622.56 1.1875 624.748 0.875 627.144 0.875C630.519 0.875 633.425 1.5 635.862 2.75C638.321 4 640.206 5.67708 641.519 7.78125C642.852 9.88542 643.519 12.2083 643.519 14.75H635.737C635.737 13.25 635.415 11.9271 634.769 10.7812C634.144 9.61458 633.185 8.69792 631.894 8.03125C630.623 7.36458 629.008 7.03125 627.05 7.03125C625.196 7.03125 623.654 7.3125 622.425 7.875C621.196 8.4375 620.279 9.19792 619.675 10.1562C619.071 11.1146 618.769 12.1979 618.769 13.4062C618.769 14.2604 618.967 15.0417 619.362 15.75C619.758 16.4375 620.362 17.0833 621.175 17.6875C621.987 18.2708 623.008 18.8229 624.237 19.3438C625.467 19.8646 626.915 20.3646 628.581 20.8438C631.102 21.5938 633.3 22.4271 635.175 23.3438C637.05 24.2396 638.612 25.2604 639.862 26.4062C641.112 27.5521 642.05 28.8542 642.675 30.3125C643.3 31.75 643.612 33.3854 643.612 35.2188C643.612 37.1354 643.227 38.8646 642.456 40.4062C641.685 41.9271 640.581 43.2292 639.144 44.3125C637.727 45.375 636.019 46.1979 634.019 46.7812C632.04 47.3438 629.831 47.625 627.394 47.625C625.206 47.625 623.05 47.3333 620.925 46.75C618.821 46.1667 616.904 45.2812 615.175 44.0938C613.446 42.8854 612.071 41.3854 611.05 39.5938C610.029 37.7812 609.519 35.6667 609.519 33.25H617.362C617.362 34.7292 617.612 35.9896 618.112 37.0312C618.633 38.0729 619.352 38.9271 620.269 39.5938C621.185 40.2396 622.248 40.7188 623.456 41.0312C624.685 41.3438 625.998 41.5 627.394 41.5C629.227 41.5 630.758 41.2396 631.987 40.7188C633.237 40.1979 634.175 39.4688 634.8 38.5312C635.425 37.5938 635.737 36.5104 635.737 35.2812ZM671.189 1.5V47H663.407V1.5H671.189ZM685.47 1.5V7.75H649.251V1.5H685.47ZM693.39 1.5H709.484C712.942 1.5 715.89 2.02083 718.328 3.0625C720.765 4.10417 722.63 5.64583 723.921 7.6875C725.234 9.70833 725.89 12.2083 725.89 15.1875C725.89 17.4583 725.473 19.4583 724.64 21.1875C723.807 22.9167 722.63 24.375 721.109 25.5625C719.588 26.7292 717.775 27.6354 715.671 28.2812L713.296 29.4375H698.828L698.765 23.2188H709.609C711.484 23.2188 713.046 22.8854 714.296 22.2188C715.546 21.5521 716.484 20.6458 717.109 19.5C717.755 18.3333 718.078 17.0208 718.078 15.5625C718.078 13.9792 717.765 12.6042 717.14 11.4375C716.536 10.25 715.598 9.34375 714.328 8.71875C713.057 8.07292 711.442 7.75 709.484 7.75H701.234V47H693.39V1.5ZM719.359 47L708.671 26.5625L716.89 26.5312L727.734 46.5938V47H719.359ZM743.997 1.5V47H736.154V1.5H743.997ZM773.949 7.5625L760.355 47H752.136L769.261 1.5H774.511L773.949 7.5625ZM785.324 47L771.699 7.5625L771.105 1.5H776.386L793.574 47H785.324ZM784.667 30.125V36.3438H759.917V30.125H784.667Z" fill="black"/>
</svg>
