<svg width="16" height="16" viewBox="0 0 16 16" fill="none" xmlns="http://www.w3.org/2000/svg">
<path d="M7.99996 14.4584C11.5668 14.4584 14.4583 11.5669 14.4583 8.00008C14.4583 4.43324 11.5668 1.54175 7.99996 1.54175C4.43312 1.54175 1.54163 4.43324 1.54163 8.00008C1.54163 11.5669 4.43312 14.4584 7.99996 14.4584Z" fill="#ED3675"/>
<path fill-rule="evenodd" clip-rule="evenodd" d="M8.00004 1.33325C4.31971 1.33325 1.33337 4.31959 1.33337 7.99992C1.33337 11.6803 4.31971 14.6666 8.00004 14.6666C11.6734 14.6666 14.6667 11.6803 14.6667 7.99992C14.6667 4.31959 11.6734 1.33325 8.00004 1.33325ZM12.4034 4.40625C13.1987 5.37525 13.676 6.61158 13.6904 7.94925C13.5024 7.91325 11.6224 7.52992 9.72804 7.76858C9.68471 7.67458 9.64837 7.57325 9.60504 7.47225C9.48937 7.19759 9.35904 6.91559 9.22904 6.64792C11.326 5.79459 12.2807 4.56525 12.4034 4.40625ZM8.00004 2.31659C9.44604 2.31659 10.7694 2.85892 11.7744 3.74825C11.673 3.89292 10.8127 5.04259 8.78804 5.80159C7.85537 4.08792 6.82137 2.68525 6.66237 2.46825C7.08904 2.36725 7.53737 2.31659 8.00004 2.31659ZM5.57771 2.85159C5.72937 3.05392 6.74171 4.46392 7.68904 6.14158C5.02804 6.85025 2.67804 6.83592 2.42504 6.83592C2.79404 5.07158 3.98704 3.60359 5.57771 2.85159ZM2.30237 8.00725C2.30237 7.94925 2.30237 7.89158 2.30237 7.83358C2.54837 7.84092 5.31037 7.87692 8.15204 7.02358C8.31837 7.34158 8.47004 7.66725 8.61471 7.99259C8.54237 8.01425 8.46271 8.03592 8.39071 8.05758C5.45504 9.00492 3.89337 11.5933 3.76304 11.8103C2.85904 10.8056 2.30237 9.46758 2.30237 8.00725ZM8.00004 13.6976C6.68404 13.6976 5.46937 13.2493 4.50771 12.4973C4.60904 12.2876 5.76571 10.0606 8.97637 8.93992C8.99071 8.93258 8.99804 8.93258 9.01271 8.92558C9.81537 11.0009 10.1407 12.7433 10.2274 13.2423C9.54004 13.5386 8.78804 13.6976 8.00004 13.6976ZM11.1744 12.7216C11.1164 12.3746 10.8127 10.7116 10.068 8.66525C11.854 8.38325 13.4157 8.84592 13.611 8.91125C13.3654 10.4946 12.454 11.8609 11.1744 12.7216Z" fill="#BD1949"/>
</svg>
