<svg width="16" height="16" viewBox="0 0 16 16" fill="none" xmlns="http://www.w3.org/2000/svg">
<path d="M15 5.3999L13.3333 6.31657L11.6666 7.8999V13.3332H14C14.5523 13.3332 15 12.8856 15 12.3332V5.3999Z" fill="#4CAF50"/>
<path d="M1 5.3999L2.20467 5.9699L4.33333 7.8999V13.3332H2C1.44767 13.3332 1 12.8856 1 12.3332V5.3999Z" fill="#1E88E5"/>
<path d="M11.6667 3.7334L8 6.4834L4.33333 3.7334L4 5.66673L4.33333 7.90006L8 10.6501L11.6667 7.90006L12 5.66673L11.6667 3.7334Z" fill="#E53935"/>
<path d="M1 4.09941V5.40008L4.33333 7.90008V3.73341L3.292 2.95308C3.044 2.76708 2.74267 2.66675 2.43267 2.66675C1.64133 2.66675 1 3.30808 1 4.09941Z" fill="#C62828"/>
<path d="M15 4.09941V5.40008L11.6666 7.90008V3.73341L12.708 2.95308C12.956 2.76708 13.2573 2.66675 13.5673 2.66675C14.3586 2.66675 15 3.30808 15 4.09941Z" fill="#FBC02D"/>
</svg>
