<svg width="16" height="16" viewBox="0 0 16 16" fill="none" xmlns="http://www.w3.org/2000/svg">
<path fill-rule="evenodd" clip-rule="evenodd" d="M1.62256 14.4344L2.52056 11.1561C1.96656 10.1967 1.67523 9.10808 1.67556 7.99308C1.67723 4.50475 4.51589 1.66675 8.00456 1.66675C9.69756 1.66741 11.2862 2.32641 12.4812 3.52208C13.6759 4.71808 14.3339 6.30741 14.3332 7.99808C14.3319 11.4864 11.4926 14.3247 8.00456 14.3247C8.00423 14.3247 8.00456 14.3247 8.00456 14.3247H8.00189C6.94289 14.3244 5.90189 14.0587 4.97756 13.5544L1.62256 14.4344Z" fill="white"/>
<path fill-rule="evenodd" clip-rule="evenodd" d="M1.62258 14.601C1.57858 14.601 1.53591 14.5837 1.50424 14.5517C1.46258 14.5093 1.44624 14.4477 1.46191 14.3907L2.34158 11.1787C1.79624 10.21 1.50858 9.11 1.50924 7.99333C1.51058 4.41267 4.42424 1.5 8.00458 1.5C9.74124 1.50067 11.3729 2.177 12.5992 3.40433C13.8256 4.632 14.5006 6.26333 14.4999 7.998C14.4986 11.5783 11.5846 14.4913 8.00458 14.4913C6.94158 14.491 5.88991 14.2287 4.95658 13.7323L1.66491 14.5953C1.65091 14.5993 1.63691 14.601 1.62258 14.601Z" fill="white"/>
<path fill-rule="evenodd" clip-rule="evenodd" d="M8.00478 1.66659C9.69778 1.66725 11.2864 2.32625 12.4814 3.52192C13.6761 4.71792 14.3341 6.30725 14.3334 7.99792C14.3321 11.4863 11.4928 14.3246 8.00478 14.3246H8.00211C6.94311 14.3243 5.90211 14.0586 4.97778 13.5543L1.62278 14.4343L2.52078 11.1559C1.96678 10.1966 1.67544 9.10792 1.67578 7.99292C1.67744 4.50459 4.51611 1.66659 8.00478 1.66659ZM8.00478 1.33325C4.33278 1.33325 1.34411 4.32059 1.34244 7.99292C1.34211 9.11525 1.62544 10.2213 2.16278 11.2003L1.30111 14.3466C1.26978 14.4616 1.30178 14.5843 1.38578 14.6689C1.44911 14.7329 1.53478 14.7679 1.62278 14.7679C1.65111 14.7679 1.67944 14.7643 1.70744 14.7569L4.93644 13.9103C5.87911 14.3996 6.93578 14.6579 8.00211 14.6583C11.6768 14.6583 14.6654 11.6706 14.6671 7.99825C14.6678 6.21859 13.9754 4.54525 12.7178 3.28659C11.4594 2.02759 9.78578 1.33392 8.00478 1.33325Z" fill="#CFD8DC"/>
<path fill-rule="evenodd" clip-rule="evenodd" d="M11.7252 4.27735C10.7319 3.28335 9.41156 2.73568 8.00623 2.73535C5.1049 2.73535 2.74523 5.09402 2.7439 7.99335C2.74356 8.98702 3.02156 9.95435 3.54823 10.792L3.67356 10.991L3.1419 12.9314L5.1329 12.4094L5.32523 12.5234C6.13256 13.0027 7.05856 13.256 8.00256 13.2564H8.00456C10.9039 13.2564 13.2636 10.8974 13.2646 7.99768C13.2649 6.59268 12.7186 5.27135 11.7252 4.27735Z" fill="#40C351"/>
<path fill-rule="evenodd" clip-rule="evenodd" d="M6.42266 5.3483C6.30433 5.08496 6.17966 5.07963 6.06666 5.07496C5.97433 5.07096 5.869 5.0713 5.76366 5.0713C5.65833 5.0713 5.487 5.11096 5.342 5.2693C5.197 5.42763 4.78833 5.80996 4.78833 6.58796C4.78833 7.36596 5.355 8.11796 5.434 8.2233C5.513 8.32863 6.528 9.9763 8.13533 10.6103C9.471 11.137 9.743 11.0323 10.033 11.006C10.323 10.9796 10.9687 10.6236 11.1003 10.2543C11.232 9.88496 11.232 9.56863 11.1927 9.50263C11.153 9.43663 11.0477 9.3973 10.8897 9.31796C10.7317 9.23863 9.954 8.8563 9.809 8.80363C9.664 8.75096 9.55866 8.72463 9.453 8.88296C9.34766 9.04096 9.04466 9.3973 8.95233 9.50263C8.86 9.6083 8.76766 9.62163 8.60966 9.5423C8.45166 9.46296 7.94233 9.2963 7.338 8.75763C6.868 8.33863 6.55066 7.82096 6.45833 7.66263C6.366 7.50463 6.44833 7.41896 6.52766 7.33996C6.59866 7.26896 6.68566 7.1553 6.765 7.06296C6.844 6.97063 6.87033 6.90463 6.923 6.7993C6.97566 6.69363 6.94933 6.6013 6.90966 6.5223C6.87066 6.44296 6.56333 5.66096 6.42266 5.3483Z" fill="white"/>
</svg>
